<svg width="26" height="28" viewBox="0 0 26 28" fill="none" xmlns="http://www.w3.org/2000/svg">
<path d="M20.1671 15.3334V16.6667C20.1671 20.3595 19.2819 23.9268 17.6137 27.1274L17.3113 27.6885L14.9821 26.3899C16.5288 23.6154 17.3948 20.509 17.4913 17.2746L17.5004 16.6667V15.3334H20.1671ZM12.1671 11.3334H14.8337V16.6667L14.8264 17.1717C14.7204 20.8661 13.4527 24.3642 11.2384 27.2374L10.9307 27.6253L8.86541 25.9382C10.8877 23.4626 12.0527 20.4023 12.1591 17.1551L12.1671 16.6667V11.3334ZM13.5004 6.00008C17.1823 6.00008 20.1671 8.98485 20.1671 12.6667H17.5004C17.5004 10.4576 15.7095 8.66675 13.5004 8.66675C11.2912 8.66675 9.50033 10.4576 9.50033 12.6667V16.6667C9.50033 19.6473 8.40747 22.4593 6.47237 24.6358L6.19023 24.9423L4.2594 23.1031C5.81104 21.4742 6.72799 19.3491 6.82508 17.0703L6.83366 16.6667V12.6667C6.83366 8.98485 9.81844 6.00008 13.5004 6.00008ZM13.5004 0.666748C20.1277 0.666748 25.5004 6.03933 25.5004 12.6667V16.6667C25.5004 18.9306 25.2313 21.1599 24.7047 23.3205L24.5196 24.0381L21.9465 23.3377C22.468 21.4217 22.7633 19.4411 22.8225 17.4246L22.8337 16.6667V12.6667C22.8337 7.51209 18.6549 3.33341 13.5004 3.33341C11.4039 3.33341 9.46884 4.02463 7.91073 5.1916L6.01077 3.29033C8.06356 1.64849 10.6673 0.666748 13.5004 0.666748ZM4.12392 5.17718L6.02519 7.07715C4.918 8.55544 4.23907 10.373 4.17241 12.3458L4.16615 12.6654L4.17171 15.3334C4.17171 16.8261 3.81988 18.2702 3.15684 19.5697L2.94864 19.9551L0.632812 18.633C1.13852 17.7471 1.43436 16.7575 1.49385 15.7233L1.50504 15.3334L1.50481 12.6667C1.50033 9.83371 2.48208 7.22998 4.12392 5.17718Z" fill="#EAEAEA"/>
</svg>
