<svg width="16" height="17" viewBox="0 0 16 17" fill="none" xmlns="http://www.w3.org/2000/svg">
<path d="M13.3333 15.1673H2.66667C2.29848 15.1673 2 14.8689 2 14.5007V2.50065C2 2.13246 2.29848 1.83398 2.66667 1.83398H13.3333C13.7015 1.83398 14 2.13246 14 2.50065V14.5007C14 14.8689 13.7015 15.1673 13.3333 15.1673ZM12.6667 13.834V3.16732H3.33333V13.834H12.6667ZM4.66667 4.50065H7.33333V7.16732H4.66667V4.50065ZM4.66667 8.50065H11.3333V9.83398H4.66667V8.50065ZM4.66667 11.1673H11.3333V12.5007H4.66667V11.1673ZM8.66667 5.16732H11.3333V6.50065H8.66667V5.16732Z" fill="#BBBBBB"/>
</svg>
