<svg width="16" height="17" viewBox="0 0 16 17" fill="none" xmlns="http://www.w3.org/2000/svg">
<path d="M1.33203 13.834H14.6654V15.1673H1.33203V13.834ZM2.66536 8.50065H3.9987V13.1673H2.66536V8.50065ZM5.9987 8.50065H7.33203V13.1673H5.9987V8.50065ZM8.66536 8.50065H9.9987V13.1673H8.66536V8.50065ZM11.9987 8.50065H13.332V13.1673H11.9987V8.50065ZM1.33203 5.16732L7.9987 1.83398L14.6654 5.16732V7.83398H1.33203V5.16732ZM2.66536 5.99136V6.50065H13.332V5.99136L7.9987 3.3247L2.66536 5.99136ZM7.9987 5.83398C7.6305 5.83398 7.33203 5.5355 7.33203 5.16732C7.33203 4.79913 7.6305 4.50065 7.9987 4.50065C8.3669 4.50065 8.66536 4.79913 8.66536 5.16732C8.66536 5.5355 8.3669 5.83398 7.9987 5.83398Z" fill="#BBBBBB"/>
</svg>
