<svg width="16" height="16" viewBox="0 0 16 16" fill="none" xmlns="http://www.w3.org/2000/svg">
<path d="M11.334 4.00065H14.6673V5.33398H13.334V14.0007C13.334 14.3689 13.0355 14.6673 12.6673 14.6673H3.33398C2.9658 14.6673 2.66732 14.3689 2.66732 14.0007V5.33398H1.33398V4.00065H4.66732V2.00065C4.66732 1.63246 4.9658 1.33398 5.33398 1.33398H10.6673C11.0355 1.33398 11.334 1.63246 11.334 2.00065V4.00065ZM12.0007 5.33398H4.00065V13.334H12.0007V5.33398ZM6.00065 7.33398H7.33398V11.334H6.00065V7.33398ZM8.66732 7.33398H10.0007V11.334H8.66732V7.33398ZM6.00065 2.66732V4.00065H10.0007V2.66732H6.00065Z" fill="#D42620"/>
</svg>
