<svg width="16" height="17" viewBox="0 0 16 17" fill="none" xmlns="http://www.w3.org/2000/svg">
<path d="M12 5.83268H13.3333C13.7015 5.83268 14 6.13116 14 6.49935V14.4993C14 14.8675 13.7015 15.166 13.3333 15.166H2.66667C2.29848 15.166 2 14.8675 2 14.4993V6.49935C2 6.13116 2.29848 5.83268 2.66667 5.83268H4V5.16602C4 2.95688 5.79086 1.16602 8 1.16602C10.2091 1.16602 12 2.95688 12 5.16602V5.83268ZM3.33333 7.16602V13.8327H12.6667V7.16602H3.33333ZM7.33333 9.83268H8.66667V11.166H7.33333V9.83268ZM4.66667 9.83268H6V11.166H4.66667V9.83268ZM10 9.83268H11.3333V11.166H10V9.83268ZM10.6667 5.83268V5.16602C10.6667 3.69326 9.47273 2.49935 8 2.49935C6.52724 2.49935 5.33333 3.69326 5.33333 5.16602V5.83268H10.6667Z" fill="#BBBBBB"/>
</svg>
