<svg width="16" height="17" viewBox="0 0 16 17" fill="none" xmlns="http://www.w3.org/2000/svg">
<path d="M14.6654 11.8355C14.6647 13.7494 13.3198 15.3491 11.5235 15.7417L11.0982 14.4657C11.9008 14.3347 12.583 13.8454 12.9753 13.1673H11.332C10.5956 13.1673 9.9987 12.5704 9.9987 11.834V9.16732C9.9987 8.43092 10.5956 7.83398 11.332 7.83398H13.2908C12.9627 5.20311 10.7184 3.16732 7.9987 3.16732C5.27895 3.16732 3.03469 5.20311 2.70662 7.83398H4.66536C5.40174 7.83398 5.9987 8.43092 5.9987 9.16732V11.834C5.9987 12.5704 5.40174 13.1673 4.66536 13.1673H2.66536C1.92898 13.1673 1.33203 12.5704 1.33203 11.834V8.50065C1.33203 4.81875 4.3168 1.83398 7.9987 1.83398C11.6806 1.83398 14.6654 4.81875 14.6654 8.50065V9.16645V9.16732V11.834V11.8355ZM13.332 11.834V9.16732H11.332V11.834H13.332ZM2.66536 9.16732V11.834H4.66536V9.16732H2.66536Z" fill="#BBBBBB"/>
</svg>
