<svg width="16" height="16" viewBox="0 0 16 16" fill="none" xmlns="http://www.w3.org/2000/svg">
<path d="M7.99935 4.66603C10.9449 4.66603 13.3327 7.05384 13.3327 9.99937C13.3327 12.9449 10.9449 15.3327 7.99935 15.3327C5.05383 15.3327 2.66602 12.9449 2.66602 9.99937C2.66602 7.05384 5.05383 4.66603 7.99935 4.66603ZM7.99935 5.99936C5.79021 5.99936 3.99935 7.79024 3.99935 9.99937C3.99935 12.2085 5.79021 13.9994 7.99935 13.9994C10.2085 13.9994 11.9993 12.2085 11.9993 9.99937C11.9993 7.79024 10.2085 5.99936 7.99935 5.99936ZM7.99935 6.99937L8.88102 8.78584L10.8525 9.0723L9.42595 10.4629L9.76268 12.4264L7.99935 11.4994L6.236 12.4264L6.57276 10.4629L5.14618 9.0723L7.11768 8.78584L7.99935 6.99937ZM11.9993 1.3327V3.3327L11.0904 4.09107C10.353 3.7045 9.53435 3.45193 8.66675 3.36569L8.66602 1.33203L11.9993 1.3327ZM7.33268 1.33203L7.33248 3.36563C6.46495 3.45179 5.64632 3.70427 4.90896 4.09072L3.99935 3.3327V1.3327L7.33268 1.33203Z" fill="#BBBBBB"/>
</svg>
