<svg width="17" height="16" viewBox="0 0 17 16" fill="none" xmlns="http://www.w3.org/2000/svg">
<path d="M5.36143 13.8815L1.83398 14.6654L2.61786 11.1379C2.11761 10.2024 1.83398 9.1337 1.83398 7.9987C1.83398 4.3168 4.81875 1.33203 8.50065 1.33203C12.1825 1.33203 15.1673 4.3168 15.1673 7.9987C15.1673 11.6806 12.1825 14.6654 8.50065 14.6654C7.36565 14.6654 6.29692 14.3818 5.36143 13.8815ZM5.55448 12.4727L5.99017 12.7057C6.75564 13.115 7.61098 13.332 8.50065 13.332C11.4462 13.332 13.834 10.9442 13.834 7.9987C13.834 5.05318 11.4462 2.66536 8.50065 2.66536C5.55513 2.66536 3.16732 5.05318 3.16732 7.9987C3.16732 8.88836 3.38431 9.7437 3.79364 10.5092L4.02662 10.9448L3.59009 12.9092L5.55448 12.4727Z" fill="#BB9534"/>
</svg>
