<svg width="16" height="17" viewBox="0 0 16 17" fill="none" xmlns="http://www.w3.org/2000/svg">
<path d="M12.0213 11.5766L14.8764 14.4317L13.9337 15.3745L11.0785 12.5194C10.0519 13.3407 8.74998 13.832 7.33398 13.832C4.02198 13.832 1.33398 11.144 1.33398 7.83203C1.33398 4.52003 4.02198 1.83203 7.33398 1.83203C10.646 1.83203 13.334 4.52003 13.334 7.83203C13.334 9.24803 12.8427 10.55 12.0213 11.5766ZM10.6838 11.0819C11.499 10.2418 12.0007 9.09576 12.0007 7.83203C12.0007 5.2537 9.91232 3.16536 7.33398 3.16536C4.75565 3.16536 2.66732 5.2537 2.66732 7.83203C2.66732 10.4104 4.75565 12.4987 7.33398 12.4987C8.59772 12.4987 9.74372 11.997 10.5838 11.1818L10.6838 11.0819Z" fill="white"/>
</svg>
