<svg width="41" height="40" viewBox="0 0 41 40" fill="none" xmlns="http://www.w3.org/2000/svg">
<rect x="0.5" width="40" height="40" rx="20" fill="#4F3F16"/>
<path d="M20.5 20.5858L24.7426 24.8284L23.3284 26.2426L21.5 24.415V30H19.5V24.413L17.6716 26.2426L16.2574 24.8284L20.5 20.5858ZM20.5 10C24.0934 10 27.0544 12.7076 27.4541 16.1939C29.7858 16.8315 31.5 18.9656 31.5 21.5C31.5 24.3688 29.3036 26.7246 26.5006 26.9776L26.5009 24.9644C28.1966 24.7214 29.5 23.2629 29.5 21.5C29.5 19.567 27.933 18 26 18C25.7912 18 25.5867 18.0183 25.3887 18.054C25.4616 17.7142 25.5 17.3616 25.5 17C25.5 14.2386 23.2614 12 20.5 12C17.7386 12 15.5 14.2386 15.5 17C15.5 17.3616 15.5384 17.7142 15.6121 18.0533C15.4133 18.0183 15.2088 18 15 18C13.067 18 11.5 19.567 11.5 21.5C11.5 23.2003 12.7124 24.6174 14.3199 24.934L14.5001 24.9646L14.5004 26.9776C11.697 26.7252 9.5 24.3692 9.5 21.5C9.5 18.9656 11.2142 16.8315 13.5465 16.1941C13.9456 12.7076 16.9066 10 20.5 10Z" fill="#BB9534"/>
</svg>
