<svg width="21" height="20" viewBox="0 0 21 20" fill="none" xmlns="http://www.w3.org/2000/svg">
<path d="M10.6668 1.66602C15.2692 1.66602 19.0002 5.39697 19.0002 9.99935C19.0002 14.6017 15.2692 18.3327 10.6668 18.3327C6.06445 18.3327 2.3335 14.6017 2.3335 9.99935H4.00016C4.00016 13.6813 6.98493 16.666 10.6668 16.666C14.3487 16.666 17.3335 13.6813 17.3335 9.99935C17.3335 6.31745 14.3487 3.33268 10.6668 3.33268C8.37535 3.33268 6.35389 4.4888 5.15392 6.24955L7.3335 6.24935V7.91602H2.3335V2.91602H4.00016L4.00007 4.99867C5.52045 2.97497 7.94077 1.66602 10.6668 1.66602ZM11.5002 5.83268L11.5 9.65352L14.2023 12.3563L13.0238 13.5348L9.83333 10.3435L9.8335 5.83268H11.5002Z" fill="#BB9534"/>
</svg>
