<svg width="21" height="20" viewBox="0 0 21 20" fill="none" xmlns="http://www.w3.org/2000/svg">
<path d="M12.8376 1.66846C14.6785 1.66846 16.1709 3.16084 16.1709 5.00179C16.1709 5.60932 16.0083 6.17888 15.7244 6.66938L19.5042 6.66846V8.33512H17.8376V16.6684C17.8376 17.1287 17.4645 17.5018 17.0042 17.5018H3.6709C3.21066 17.5018 2.83757 17.1287 2.83757 16.6684V8.33512H1.1709V6.66846L4.95071 6.66938C4.66676 6.17888 4.50423 5.60932 4.50423 5.00179C4.50423 3.16084 5.99661 1.66846 7.83756 1.66846C8.83358 1.66846 9.72758 2.1053 10.3383 2.79784C10.9476 2.1053 11.8416 1.66846 12.8376 1.66846ZM11.1709 8.33512H9.50425V16.6684H11.1709V8.33512ZM7.83756 3.33512C6.91709 3.33512 6.1709 4.08132 6.1709 5.00179C6.1709 5.88042 6.8508 6.60026 7.71318 6.66388L7.83756 6.66846H9.50425V5.00179C9.50425 4.16708 8.89067 3.4757 8.08988 3.3541L7.96196 3.33969L7.83756 3.33512ZM12.8376 3.33512C11.9589 3.33512 11.2391 4.01502 11.1755 4.87741L11.1709 5.00179V6.66846H12.8376C13.7162 6.66846 14.436 5.98856 14.4997 5.12617L14.5042 5.00179C14.5042 4.08132 13.7581 3.33512 12.8376 3.33512Z" fill="#BB9534"/>
</svg>
