<svg width="348" height="260" viewBox="0 0 348 260" fill="none" xmlns="http://www.w3.org/2000/svg">
<path fill-rule="evenodd" clip-rule="evenodd" d="M65.0605 0.159668H286.157L347.28 61.2829L174.439 259.275L0.720215 61.2829L65.0605 0.159668ZM280.893 15.3673H70.3247L29.8557 58.0659V72.6886L168.723 230.77H181.819L321.837 72.6886V58.0659L280.893 15.3673Z" fill="#BB9534"/>
<path d="M140.218 178.825L174.439 218.494L210.402 178.825C182.309 185.656 166.954 185.556 140.218 178.825Z" fill="#BB9534"/>
<path d="M126.486 26.7594H77.6622L40.5359 63.8857L84.2738 113.727C82.1595 66.7689 93.7192 49.3456 126.486 26.7594Z" fill="#BB9534"/>
<path d="M225.15 26.7594H272.448L310.592 63.8857L243.459 141.698L210.402 118.304C203.804 130.64 191.377 139.156 176.835 139.156C155.488 139.156 138.183 121.167 138.183 98.9777C138.183 76.7881 155.488 58.7999 176.835 58.7999C191.203 58.7999 203.74 63.9977 210.402 76.0916L243.459 43.0339L225.15 26.7594Z" fill="#BB9534"/>
</svg>
