<svg width="12" height="12" viewBox="0 0 12 12" fill="none" xmlns="http://www.w3.org/2000/svg">
<path d="M6 3.5005C8.20915 3.5005 10 5.29136 10 7.5005C10 9.70965 8.20915 11.5005 6 11.5005C3.79086 11.5005 2 9.70965 2 7.5005C2 5.29136 3.79086 3.5005 6 3.5005ZM6 4.5005C4.34314 4.5005 3 5.84366 3 7.5005C3 9.15736 4.34314 10.5005 6 10.5005C7.65685 10.5005 9 9.15736 9 7.5005C9 5.84366 7.65685 4.5005 6 4.5005ZM6 5.2505L6.66125 6.59035L8.1399 6.8052L7.06995 7.84816L7.3225 9.3208L6 8.6255L4.67748 9.3208L4.93006 7.84816L3.86013 6.8052L5.33875 6.59035L6 5.2505ZM9 1.0005V2.5005L8.3183 3.06928C7.76525 2.77935 7.15125 2.58992 6.50055 2.52524L6.5 1L9 1.0005ZM5.5 1L5.49985 2.5252C4.8492 2.58982 4.23523 2.77918 3.6822 3.06902L3 2.5005V1.0005L5.5 1Z" fill="white"/>
</svg>
