<svg width="21" height="20" viewBox="0 0 21 20" fill="none" xmlns="http://www.w3.org/2000/svg">
<path d="M10.667 1.66602C15.2693 1.66602 19.0003 5.39697 19.0003 9.99935C19.0003 14.6017 15.2693 18.3327 10.667 18.3327C6.06458 18.3327 2.33362 14.6017 2.33362 9.99935H4.00028C4.00028 13.6813 6.98505 16.666 10.667 16.666C14.3489 16.666 17.3336 13.6813 17.3336 9.99935C17.3336 6.31745 14.3489 3.33268 10.667 3.33268C8.37547 3.33268 6.35401 4.4888 5.15404 6.24955L7.33362 6.24935V7.91602H2.33362V2.91602H4.00028L4.00019 4.99867C5.52057 2.97497 7.94089 1.66602 10.667 1.66602ZM11.5003 5.83268L11.5001 9.65352L14.2025 12.3563L13.024 13.5348L9.83345 10.3435L9.83362 5.83268H11.5003Z" fill="#CECECE"/>
</svg>
