<svg width="20" height="20" viewBox="0 0 20 20" fill="none" xmlns="http://www.w3.org/2000/svg">
<path d="M10.0003 18.3327C5.39795 18.3327 1.66699 14.6017 1.66699 9.99935C1.66699 5.39697 5.39795 1.66602 10.0003 1.66602C14.6027 1.66602 18.3337 5.39697 18.3337 9.99935C18.3337 14.6017 14.6027 18.3327 10.0003 18.3327ZM10.0003 16.666C13.6822 16.666 16.667 13.6813 16.667 9.99935C16.667 6.31745 13.6822 3.33268 10.0003 3.33268C6.31843 3.33268 3.33366 6.31745 3.33366 9.99935C3.33366 13.6813 6.31843 16.666 10.0003 16.666ZM5.83366 9.99935H7.50033C7.50033 11.3801 8.61958 12.4993 10.0003 12.4993C11.3811 12.4993 12.5003 11.3801 12.5003 9.99935H14.167C14.167 12.3005 12.3015 14.166 10.0003 14.166C7.69914 14.166 5.83366 12.3005 5.83366 9.99935Z" fill="#CECECE"/>
</svg>
