<svg width="21" height="20" viewBox="0 0 21 20" fill="none" xmlns="http://www.w3.org/2000/svg">
<path d="M12.835 1.66748C14.6759 1.66748 16.1684 3.15986 16.1684 5.00081C16.1684 5.60834 16.0058 6.17791 15.7219 6.66841L19.5017 6.66748V8.33414H17.835V16.6675C17.835 17.1277 17.4619 17.5008 17.0017 17.5008H3.66833C3.2081 17.5008 2.835 17.1277 2.835 16.6675V8.33414H1.16833V6.66748L4.94814 6.66841C4.6642 6.17791 4.50167 5.60834 4.50167 5.00081C4.50167 3.15986 5.99405 1.66748 7.835 1.66748C8.83102 1.66748 9.72502 2.10432 10.3358 2.79686C10.945 2.10432 11.839 1.66748 12.835 1.66748ZM9.50169 8.33414H4.50167V15.8341H9.50169V8.33414ZM16.1684 8.33414H11.1684V15.8341H16.1684V8.33414ZM7.835 3.33415C6.91453 3.33415 6.16833 4.08034 6.16833 5.00081C6.16833 5.87945 6.84824 6.59928 7.71062 6.66291L7.835 6.66748H9.50169V5.00081C9.50169 4.16611 8.8881 3.47472 8.08732 3.35312L7.95939 3.33871L7.835 3.33415ZM12.835 3.33415C11.9564 3.33415 11.2365 4.01405 11.1729 4.87643L11.1684 5.00081V6.66748H12.835C13.7136 6.66748 14.4334 5.98758 14.4971 5.1252L14.5017 5.00081C14.5017 4.08034 13.7555 3.33415 12.835 3.33415Z" fill="#CECECE"/>
</svg>
